<svg
              xmlns="http://www.w3.org/2000/svg"
              width="289"
              height="238"
              viewBox="0 0 289 238"
              fill="none"
            >
              <path
                fill-rule="evenodd"
                clip-rule="evenodd"
                d="M61.2364 175.938C102.389 184.689 152.033 167.26 181.369 131.06C209.751 96.0355 210.416 54.1848 186.296 27.3665C203.396 26.2645 219.783 29.1024 233.762 36.4014C277.357 59.164 281.032 116.693 241.97 164.896C202.908 213.099 135.901 233.723 92.306 210.961C76.9656 202.951 66.5682 190.636 61.2364 175.938ZM38.7842 168.006C38.6673 167.946 38.5505 167.885 38.4339 167.824C-5.47475 144.898 -12.6704 91.2674 22.3619 48.0369C57.3943 4.80634 121.389 -11.6536 165.297 11.2725C166.48 11.8903 167.637 12.5304 168.767 13.1919C161.62 14.7669 154.456 16.8793 147.361 19.5033C110.738 5.87187 62.0248 20.3385 34.4602 54.3537C7.60711 87.4909 10.0186 127.835 38.2392 149.633C37.8226 155.917 38.0058 162.065 38.7842 168.006ZM57.5393 160.018C58.17 165.554 59.4041 170.887 61.2364 175.938C53.3756 174.266 45.8246 171.64 38.7842 168.006C42.0467 192.907 55.7662 214.176 79.6114 226.626C131.031 253.474 210.065 229.149 256.138 172.294C302.211 115.439 297.877 47.5842 246.457 20.7361C224.116 9.07156 196.564 7.0665 168.767 13.1919C175.596 17.1908 181.447 21.9748 186.296 27.3665C179.789 27.7858 173.179 28.7754 166.559 30.3068C163.284 27.6608 159.644 25.2721 155.645 23.1839C152.967 21.7855 150.2 20.56 147.361 19.5033C118.537 30.1635 90.8391 49.266 69.9299 75.0683C50.32 99.2672 39.8419 125.459 38.2392 149.633C41.2326 151.945 44.5164 154.049 48.0864 155.913C51.131 157.502 54.2896 158.869 57.5393 160.018ZM57.5393 160.018C54.7895 135.882 63.5047 107.878 84.0977 82.4658C105.868 55.6006 136.319 37.3021 166.559 30.3068C193.769 52.2895 195.781 92.0285 169.271 124.743C141.999 158.397 94.0239 172.916 57.5393 160.018Z"
                fill="url(#paint0_linear_75_45)"
              />
              <defs>
                <linearGradient
                  id="paint0_linear_75_45"
                  x1="246.456"
                  y1="20.7369"
                  x2="126.243"
                  y2="250.974"
                  gradientUnits="userSpaceOnUse"
                >
                  <stop stop-color="#FE7A00" />
                  <stop offset="1" stop-color="#FE8900" />
                </linearGradient>
              </defs>
            </svg>