 <svg
              xmlns="http://www.w3.org/2000/svg"
              width="36"
              height="28"
              viewBox="0 0 36 28"
              fill="none"
            >
              <path
                d="M22.3721 7.51661C22.0845 7.51661 21.8516 7.28357 21.8516 6.9961C21.8516 6.70863 22.0845 6.47559 22.3721 6.47559"
                stroke="#FEA500"
                stroke-width="1.71429"
                stroke-linecap="round"
                stroke-linejoin="round"
              />
              <path
                d="M22.3721 7.51661C22.6596 7.51661 22.8926 7.28357 22.8926 6.9961C22.8926 6.70863 22.6596 6.47559 22.3721 6.47559"
                stroke="#FEA500"
                stroke-width="1.71429"
                stroke-linecap="round"
                stroke-linejoin="round"
              />
              <path
                d="M2.64551 7.07393C2.64551 4.11528 5.04397 1.7168 8.00264 1.7168H22.2884C25.247 1.7168 27.6455 4.11528 27.6455 7.07393V21.3597C27.6455 24.3183 25.247 26.7168 22.2884 26.7168H8.00264C5.04397 26.7168 2.64551 24.3183 2.64551 21.3597V7.07393Z"
                stroke="#FEA500"
                stroke-width="1.71429"
                stroke-linecap="round"
                stroke-linejoin="round"
              />
              <path
                d="M9.83594 14.2155C9.83594 14.9127 9.97326 15.6031 10.2401 16.2472C10.5069 16.8914 10.898 17.4767 11.391 17.9697C11.884 18.4627 12.4693 18.8537 13.1134 19.1206C13.7575 19.3874 14.4479 19.5247 15.1452 19.5247C15.8424 19.5247 16.5328 19.3874 17.1769 19.1206C17.821 18.8537 18.4063 18.4627 18.8993 17.9697C19.3923 17.4767 19.7834 16.8914 20.0502 16.2472C20.317 15.6031 20.4544 14.9127 20.4544 14.2155C20.4544 12.8074 19.895 11.457 18.8993 10.4613C17.9037 9.46561 16.5532 8.90625 15.1452 8.90625C13.7371 8.90625 12.3866 9.46561 11.391 10.4613C10.3953 11.457 9.83594 12.8074 9.83594 14.2155Z"
                stroke="#FEA500"
                stroke-width="1.71429"
                stroke-linecap="round"
                stroke-linejoin="round"
              />
            </svg>