     <svg
              xmlns="http://www.w3.org/2000/svg"
              width="31"
              height="30"
              viewBox="0 0 31 30"
              fill="none"
            >
              <path
                d="M7.51826 3.72888C7.52453 4.47363 7.21363 5.19076 6.65272 5.72532C6.09184 6.25986 5.32598 6.56892 4.52066 6.58569C3.71701 6.55843 2.95542 6.24677 2.39323 5.71507C1.83107 5.18339 1.51129 4.47236 1.5 3.72888C1.53494 3.00454 1.86645 2.31955 2.42738 1.81282C2.98829 1.30609 3.73663 1.01551 4.52066 1C5.30243 1.0158 6.04811 1.3071 6.60529 1.81434C7.16247 2.32158 7.48907 3.00644 7.51826 3.72888ZM1.82282 11.6597C1.82282 10.0181 2.95269 10.274 4.52066 10.274C6.08865 10.274 7.19546 10.0181 7.19546 11.6597V27.6493C7.19546 29.3123 6.06558 28.9711 4.52066 28.9711C2.97575 28.9711 1.82282 29.3123 1.82282 27.6493V11.6597Z"
                stroke="#FEA500"
                stroke-width="1.71429"
                stroke-linecap="round"
                stroke-linejoin="round"
              />
              <path
                d="M11.8535 11.6595C11.8535 10.7428 12.2224 10.4017 12.7989 10.2951C13.3754 10.1885 15.3584 10.2951 16.0502 10.2951C16.7419 10.2951 17.0186 11.3397 16.9955 12.1285C17.5873 11.3943 18.3729 10.8127 19.2772 10.4394C20.1816 10.0661 21.1744 9.91368 22.1607 9.9966C23.1292 9.94185 24.0994 10.0761 25.0082 10.3906C25.9167 10.7052 26.7439 11.193 27.4353 11.8223C28.1269 12.4516 28.6674 13.2084 29.0219 14.0435C29.3765 14.8786 29.537 15.7734 29.4932 16.6696V27.5851C29.4932 29.2481 28.3865 28.9069 26.8184 28.9069C25.2504 28.9069 24.1437 29.2481 24.1437 27.5851V19.0574C24.1842 18.6185 24.1222 18.1766 23.9617 17.7619C23.8012 17.3472 23.5459 16.9692 23.2135 16.6537C22.8811 16.3382 22.479 16.0926 22.0347 15.9334C21.5905 15.7743 21.1144 15.7054 20.6388 15.7315C20.1654 15.7204 19.6949 15.8024 19.2583 15.9721C18.8218 16.1417 18.4292 16.3952 18.1066 16.7156C17.7839 17.0361 17.5386 17.4163 17.3868 17.831C17.235 18.2457 17.1803 18.6856 17.2262 19.1213V27.6491C17.2262 29.3121 16.0963 28.9709 14.5283 28.9709C12.9603 28.9709 11.8535 29.3121 11.8535 27.6491V11.6595Z"
                stroke="#FEA500"
                stroke-width="1.71429"
                stroke-linecap="round"
                stroke-linejoin="round"
              />
            </svg>