<svg xmlns="http://www.w3.org/2000/svg" width="21" height="20" viewBox="0 0 21 20" fill="none">
  <path d="M17.1363 17.697C17.4292 17.9899 17.9041 17.9899 18.197 17.697C18.4899 17.4041 18.4899 16.9292 18.197 16.6363L17.1363 17.697ZM14.4167 8.83334C14.4167 11.6408 12.1408 13.9167 9.33334 13.9167V15.4167C12.9692 15.4167 15.9167 12.4692 15.9167 8.83334H14.4167ZM9.33334 13.9167C6.52589 13.9167 4.25 11.6408 4.25 8.83334H2.75C2.75 12.4692 5.69746 15.4167 9.33334 15.4167V13.9167ZM4.25 8.83334C4.25 6.02589 6.52589 3.75 9.33334 3.75V2.25C5.69746 2.25 2.75 5.19746 2.75 8.83334H4.25ZM9.33334 3.75C12.1408 3.75 14.4167 6.02589 14.4167 8.83334H15.9167C15.9167 5.19746 12.9692 2.25 9.33334 2.25V3.75ZM12.9697 13.5303L17.1363 17.697L18.197 16.6363L14.0303 12.4697L12.9697 13.5303Z" fill="#3C4242"/>
</svg>