  <svg
              xmlns="http://www.w3.org/2000/svg"
              width="31"
              height="30"
              viewBox="0 0 31 30"
              fill="none"
            >
              <path
                d="M8.9551 21.1671C7.38776 22.6091 5.58878 23.6672 3.66522 24.2781C3.45334 24.3683 3.27028 24.5326 3.14093 24.7486C3.01155 24.9648 2.94215 25.2225 2.94215 25.4865C2.94215 25.7506 3.01155 26.0082 3.14093 26.2244C3.27028 26.4407 3.45334 26.605 3.66522 26.695C18.8544 33.997 28.5123 22.7097 27.0416 10.1883L29.5 4.22324H26.6465C23.0907 -0.89332 13.6523 -0.636206 15.2108 10.2654C15.2108 10.2654 10.1623 11.3196 3.70912 3.889C3.55984 3.71637 3.37144 3.59745 3.16626 3.54637C2.96107 3.49528 2.7477 3.51412 2.55138 3.60069C2.35506 3.68726 2.18403 3.83793 2.05855 4.03486C1.93308 4.23175 1.85841 4.46668 1.84338 4.71176C1.16104 7.99729 1.50251 11.4602 2.80632 14.477C4.11014 17.4938 6.2906 19.8662 8.9551 21.1671Z"
                stroke="#FEA500"
                stroke-width="1.71429"
                stroke-linecap="round"
                stroke-linejoin="round"
              />
            </svg>