 <svg
              xmlns="http://www.w3.org/2000/svg"
              width="31"
              height="30"
              viewBox="0 0 31 30"
              fill="none"
            >
              <path
                d="M15.4959 1C7.87303 1.00238 1.50432 7.38115 1.50435 15C1.50437 17.7467 2.32163 20.46 3.84701 22.7538L1.5 29L9.35923 27.5783C11.2791 28.5169 13.3872 28.9872 15.4959 28.9886C23.1254 28.9938 29.5 22.6235 29.5 15C29.5 7.38515 23.1231 0.995498 15.4959 1Z"
                stroke="#FEA500"
                stroke-width="1.71429"
                stroke-linecap="round"
                stroke-linejoin="round"
              />
              <path
                d="M16.2662 21.1647C18.1596 22.3806 20.1336 21.495 21.5084 20.4694C22.4581 19.7609 22.4265 18.3945 21.6155 17.5308L20.0161 15.8276C19.4094 16.4345 18.2272 16.7348 17.4058 16.4848C15.6402 15.9472 14.8992 15.027 14.2986 14.0912C13.6089 13.0165 14.3878 11.4114 14.9945 10.8045L13.2118 9.1766C12.4603 8.49032 11.3187 8.37451 10.663 9.15291C9.36559 10.693 8.5587 13.0311 9.5143 14.5199C11.2297 17.1925 13.5942 19.449 16.2662 21.1647Z"
                stroke="#FFBC3F"
                stroke-width="1.71429"
                stroke-linecap="round"
                stroke-linejoin="round"
              />
            </svg>
          